<mxfile host="65bd71144e">
    <diagram id="UBdgBqmDUYxHhAHoeTc4" name="Page-1">
        <mxGraphModel dx="1506" dy="440" grid="1" gridSize="10" guides="1" tooltips="1" connect="1" arrows="1" fold="1" page="1" pageScale="1" pageWidth="850" pageHeight="1100" math="0" shadow="0">
            <root>
                <mxCell id="0"/>
                <mxCell id="1" parent="0"/>
                <mxCell id="2" value="&lt;div style=&quot;color: rgb(212, 212, 212); background-color: rgb(30, 30, 30); font-family: &amp;quot;fira code&amp;quot;, consolas, &amp;quot;courier new&amp;quot;, monospace, consolas, &amp;quot;courier new&amp;quot;, monospace; font-size: 13px; line-height: 19px;&quot;&gt;&lt;span style=&quot;color: rgb(156, 220, 254); font-size: 13px;&quot;&gt;bottles&lt;/span&gt;&lt;/div&gt;" style="shape=cylinder3;whiteSpace=wrap;html=1;boundedLbl=1;backgroundOutline=1;size=15;fontSize=13;" parent="1" vertex="1">
                    <mxGeometry x="300" y="70" width="75" height="80" as="geometry"/>
                </mxCell>
                <mxCell id="5" value="" style="edgeStyle=none;html=1;fontSize=13;" parent="1" source="3" target="4" edge="1">
                    <mxGeometry relative="1" as="geometry"/>
                </mxCell>
                <mxCell id="3" value="bottles = 2" style="rounded=0;whiteSpace=wrap;html=1;fontSize=13;" parent="1" vertex="1">
                    <mxGeometry x="130" y="40" width="120" height="60" as="geometry"/>
                </mxCell>
                <mxCell id="24" style="edgeStyle=none;html=1;exitX=0;exitY=0.5;exitDx=0;exitDy=0;entryX=1;entryY=0.5;entryDx=0;entryDy=0;fontSize=13;" parent="1" source="4" target="6" edge="1">
                    <mxGeometry relative="1" as="geometry"/>
                </mxCell>
                <mxCell id="4" value="&lt;div style=&quot;background-color: rgb(30 , 30 , 30) ; line-height: 19px ; font-size: 13px&quot;&gt;&lt;font face=&quot;fira code, consolas, courier new, monospace, consolas, courier new, monospace&quot; style=&quot;font-size: 13px&quot;&gt;&lt;span style=&quot;font-size: 13px&quot;&gt;while you have more than 1 bottle&lt;/span&gt;&lt;/font&gt;&lt;br style=&quot;font-size: 13px&quot;&gt;&lt;/div&gt;" style="shape=parallelogram;perimeter=parallelogramPerimeter;whiteSpace=wrap;html=1;fixedSize=1;fontFamily=Helvetica;fontSize=13;fontColor=rgb(240, 240, 240);align=center;strokeColor=rgb(240, 240, 240);fillColor=rgb(42, 42, 42);" parent="1" vertex="1">
                    <mxGeometry x="125" y="160" width="130" height="80" as="geometry"/>
                </mxCell>
                <mxCell id="18" style="edgeStyle=none;html=1;exitX=0.5;exitY=1;exitDx=0;exitDy=0;entryX=0.5;entryY=0;entryDx=0;entryDy=0;entryPerimeter=0;fontSize=13;" parent="1" source="6" target="8" edge="1">
                    <mxGeometry relative="1" as="geometry"/>
                </mxCell>
                <mxCell id="6" value="&lt;div style=&quot;background-color: rgb(30 , 30 , 30) ; line-height: 19px ; font-size: 13px&quot;&gt;&lt;div style=&quot;color: rgb(212 , 212 , 212) ; font-family: &amp;#34;fira code&amp;#34; , &amp;#34;consolas&amp;#34; , &amp;#34;courier new&amp;#34; , monospace , &amp;#34;consolas&amp;#34; , &amp;#34;courier new&amp;#34; , monospace ; font-size: 13px ; line-height: 19px&quot;&gt;&quot;2 bottles of beer on the wall,&quot;&lt;/div&gt;&lt;div style=&quot;color: rgb(212 , 212 , 212) ; font-family: &amp;#34;fira code&amp;#34; , &amp;#34;consolas&amp;#34; , &amp;#34;courier new&amp;#34; , monospace , &amp;#34;consolas&amp;#34; , &amp;#34;courier new&amp;#34; , monospace ; font-size: 13px ; line-height: 19px&quot;&gt;&quot;2 bottles of beer,&quot;&lt;/div&gt;&lt;div style=&quot;line-height: 19px ; font-size: 13px&quot;&gt;&lt;font color=&quot;#d4d4d4&quot; face=&quot;fira code, consolas, courier new, monospace, consolas, courier new, monospace&quot; style=&quot;font-size: 13px&quot;&gt;&lt;span style=&quot;font-size: 13px&quot;&gt;&quot;Take one down, pass it around,&quot;&lt;/span&gt;&lt;/font&gt;&lt;br style=&quot;font-size: 13px&quot;&gt;&lt;/div&gt;&lt;/div&gt;" style="whiteSpace=wrap;html=1;rounded=0;align=left;fontSize=13;" parent="1" vertex="1">
                    <mxGeometry x="-340" y="170" width="265" height="60" as="geometry"/>
                </mxCell>
                <mxCell id="44" style="edgeStyle=none;html=1;exitX=0.5;exitY=1;exitDx=0;exitDy=0;exitPerimeter=0;entryX=0.5;entryY=0;entryDx=0;entryDy=0;" edge="1" parent="1" source="8" target="25">
                    <mxGeometry relative="1" as="geometry"/>
                </mxCell>
                <mxCell id="8" value="&lt;div style=&quot;background-color: rgb(30 , 30 , 30) ; line-height: 19px&quot;&gt;&lt;font color=&quot;#d4d4d4&quot; face=&quot;fira code, consolas, courier new, monospace, consolas, courier new, monospace&quot;&gt;bottles - 1&lt;/font&gt;&lt;br&gt;&lt;/div&gt;" style="shape=cylinder3;whiteSpace=wrap;html=1;boundedLbl=1;backgroundOutline=1;size=15;fontSize=13;" parent="1" vertex="1">
                    <mxGeometry x="-267.5" y="270" width="120" height="80" as="geometry"/>
                </mxCell>
                <mxCell id="30" style="edgeStyle=none;html=1;exitX=0.5;exitY=0;exitDx=0;exitDy=0;entryX=0.5;entryY=1;entryDx=0;entryDy=0;fontSize=13;" parent="1" source="17" target="4" edge="1">
                    <mxGeometry relative="1" as="geometry"/>
                </mxCell>
                <mxCell id="17" value="&lt;div style=&quot;background-color: rgb(30 , 30 , 30) ; line-height: 19px ; font-size: 13px&quot;&gt;&lt;div style=&quot;line-height: 19px ; font-size: 13px&quot;&gt;&lt;div style=&quot;color: rgb(212 , 212 , 212) ; font-family: &amp;#34;fira code&amp;#34; , &amp;#34;consolas&amp;#34; , &amp;#34;courier new&amp;#34; , monospace , &amp;#34;consolas&amp;#34; , &amp;#34;courier new&amp;#34; , monospace ; line-height: 19px&quot;&gt;&quot;x bottles of beer on the wall!&quot;&lt;/div&gt;&lt;/div&gt;&lt;/div&gt;" style="whiteSpace=wrap;html=1;rounded=0;align=left;fontSize=13;" parent="1" vertex="1">
                    <mxGeometry x="110" y="420" width="160" height="60" as="geometry"/>
                </mxCell>
                <mxCell id="29" value="false" style="edgeStyle=none;html=1;fontSize=13;exitX=0.5;exitY=1;exitDx=0;exitDy=0;startArrow=none;" parent="1" source="25" target="28" edge="1">
                    <mxGeometry relative="1" as="geometry">
                        <mxPoint x="-207.5" y="600" as="sourcePoint"/>
                    </mxGeometry>
                </mxCell>
                <mxCell id="43" value="true" style="edgeStyle=none;html=1;exitX=1;exitY=0.5;exitDx=0;exitDy=0;entryX=0;entryY=0.5;entryDx=0;entryDy=0;" edge="1" parent="1" source="25" target="17">
                    <mxGeometry relative="1" as="geometry"/>
                </mxCell>
                <mxCell id="25" value="bottles &amp;gt; 1?" style="rhombus;whiteSpace=wrap;html=1;fontSize=13;" parent="1" vertex="1">
                    <mxGeometry x="-247.5" y="410" width="80" height="80" as="geometry"/>
                </mxCell>
                <mxCell id="28" value="&lt;span style=&quot;color: rgb(212, 212, 212); font-family: &amp;quot;fira code&amp;quot;, consolas, &amp;quot;courier new&amp;quot;, monospace, consolas, &amp;quot;courier new&amp;quot;, monospace;&quot;&gt;&quot;One bottle of beer on the wall!&quot;&lt;/span&gt;&lt;div style=&quot;&quot;&gt;&lt;span style=&quot;color: rgb(212 , 212 , 212) ; font-family: &amp;quot;fira code&amp;quot; , &amp;quot;consolas&amp;quot; , &amp;quot;courier new&amp;quot; , monospace , &amp;quot;consolas&amp;quot; , &amp;quot;courier new&amp;quot; , monospace&quot;&gt;&quot;One bottle of beer on the wall.&quot;&lt;/span&gt;&lt;/div&gt;&lt;div style=&quot;color: rgb(212, 212, 212); font-family: &amp;quot;fira code&amp;quot;, consolas, &amp;quot;courier new&amp;quot;, monospace, consolas, &amp;quot;courier new&amp;quot;, monospace; line-height: 19px;&quot;&gt;&quot;One bottle of beer,&quot;&lt;/div&gt;&lt;div style=&quot;color: rgb(212, 212, 212); font-family: &amp;quot;fira code&amp;quot;, consolas, &amp;quot;courier new&amp;quot;, monospace, consolas, &amp;quot;courier new&amp;quot;, monospace; line-height: 19px;&quot;&gt;&quot;Take one down, pass it around,&quot;&lt;/div&gt;&lt;div style=&quot;color: rgb(212, 212, 212); font-family: &amp;quot;fira code&amp;quot;, consolas, &amp;quot;courier new&amp;quot;, monospace, consolas, &amp;quot;courier new&amp;quot;, monospace; line-height: 19px;&quot;&gt;&quot;No more bottles on beer on the wall!&quot;&lt;/div&gt;&lt;div style=&quot;color: rgb(212, 212, 212); font-family: &amp;quot;fira code&amp;quot;, consolas, &amp;quot;courier new&amp;quot;, monospace, consolas, &amp;quot;courier new&amp;quot;, monospace; line-height: 19px;&quot;&gt;&lt;/div&gt;" style="whiteSpace=wrap;html=1;fontSize=13;align=left;" parent="1" vertex="1">
                    <mxGeometry x="-373.12" y="580" width="331.25" height="120" as="geometry"/>
                </mxCell>
                <mxCell id="32" value="Fixin lack of singular word" style="text;strokeColor=none;fillColor=none;html=1;fontSize=24;fontStyle=1;verticalAlign=middle;align=center;" vertex="1" parent="1">
                    <mxGeometry x="-425" y="70" width="370" height="40" as="geometry"/>
                </mxCell>
            </root>
        </mxGraphModel>
    </diagram>
</mxfile>